<?xml version="1.0" encoding="UTF-8"?>
<!DOCTYPE svg PUBLIC "-//W3C//DTD SVG 1.1//EN" "http://www.w3.org/Graphics/SVG/1.1/DTD/svg11.dtd">
<!-- Creator: CorelDRAW 2017 -->
<svg xmlns="http://www.w3.org/2000/svg" xml:space="preserve" width="806px" height="428px" version="1.1" style="shape-rendering:geometricPrecision; text-rendering:geometricPrecision; image-rendering:optimizeQuality; fill-rule:evenodd; clip-rule:evenodd"
viewBox="0 0 206.32 109.54"
 xmlns:xlink="http://www.w3.org/1999/xlink">
 <defs>
  <style type="text/css">
   <![CDATA[
    .fil0 {fill:white;fill-rule:nonzero}
   ]]>
  </style>
 </defs>
 <g id="Слой_x0020_1">
  <metadata id="CorelCorpID_0Corel-Layer"/>
  <g id="_1954809194048">
   <path class="fil0" d="M29.91 21.73c1.97,-4.61 1.7,-10.06 -1.21,-14.59 -3.22,-4.98 -8.8,-7.52 -14.32,-7.09l5.19 8.05c2.21,3.44 1.22,8.01 -2.21,10.23 -3.44,2.21 -8.02,1.22 -10.23,-2.21l-5.19 -8.06c-2.68,4.86 -2.67,10.99 0.55,15.98 2.7,4.19 7.07,6.64 11.68,7.06 105.51,121.29 150.52,66.77 153.46,62.93l-1.56 0.4c-5.08,4.98 -43.72,35.63 -136.16,-72.7z"/>
   <g>
    <path class="fil0" d="M135.21 31.58c0.53,-1.86 3.36,-16.78 3.36,-16.78 -28.58,-3.32 -59.23,-0.54 -62.37,-0.24 -3.13,0.29 -5.37,0.97 -6.56,2.01 -1.2,1.05 -20.19,17.99 -20.19,17.99 0,0 76.16,0.81 80.26,0.87 4.1,0.06 4.98,-1.99 5.5,-3.85z"/>
    <path class="fil0" d="M142 36.12c0,0 -0.16,-0.99 -0.27,-2.53 -0.11,-1.55 2.12,-3.75 2.12,-3.75 1.39,-0.2 5.53,0.06 7.92,0.66 2.45,0.62 2.23,1.43 2.15,1.9 -0.08,0.47 -0.6,1.54 -1.15,2.67 -0.06,0.12 -0.19,0.23 -0.36,0.35l16.83 -3.34 -0.18 -1.85c0,0 -11.17,-13.31 -18.18,-15.02 -6.14,-1.49 -7.91,4.11 -8.36,5.97 -0.44,1.87 -2.79,16.75 -2.79,16.75l1.39 -0.27 0.88 -1.54z"/>
    <path class="fil0" d="M182.41 88.42c1.53,-3.12 2.57,-9.25 2.57,-16.3 0,-0.21 0,-0.43 0,-0.64 3.93,-12.82 1.45,-20.22 0.7,-22 0.45,-7.77 -1.73,-12.96 -3.95,-15.55l24.59 -2.57 -28.72 0c-2.91,-1.76 -7.18,-6.38 -10.17,-9.62 -4.36,-4.72 -8.25,-7.71 -11.56,-9.6l49.25 -2.57 -55.42 0c-2.86,-0.72 -4.77,-0.49 -5.51,-0.34 -24.19,-2.51 -47.21,-0.75 -58.3,0.1 -1.32,0.1 -2.47,0.19 -3.42,0.25 -12.37,0.85 -14.72,2.4 -17.52,4.85l-0.23 0.19c-1.45,1.27 -9.52,8.37 -15.68,13.79 -0.33,-1.31 -2.05,-1.54 -2.73,-1.38 -0.76,0.19 -3.64,0.85 -5.8,1.44 1.94,2.19 3.86,4.3 5.76,6.36 5.54,-4.88 18.53,-16.32 20.41,-17.96l0.23 -0.19c2.11,-1.85 3.77,-3.3 15.76,-4.12 0.96,-0.06 2.12,-0.15 3.45,-0.26 11.04,-0.84 34,-2.6 58,-0.08l0.3 0.02 0.27 -0.07c0.08,-0.02 8,-1.99 20.54,11.59 5.44,5.89 9.87,10.45 13.21,11.19 1.05,0.36 4.63,4.71 4.27,13.72l-36.58 10.91 31.84 -7.28c-1.05,1.8 -1.96,4.6 -2.79,8.54 -1.06,5.04 -1.66,10.36 -1.85,12.56l-27.1 8.47 26.77 -5.92c-0.28,1.33 -0.67,2.2 -0.92,2.65l-28.15 6c0.13,-0.95 0.24,-1.9 0.34,-2.85 1.62,-16.04 -2.65,-30.16 -9.32,-30.84 -3.34,-0.34 -6.54,2.61 -9.25,8.52 -2.02,4.4 -3.59,10.08 -4.52,16.29l-17.29 0c-1.64,0 -2.09,1.1 -1,2.45l3.78 4.7c1.1,1.35 3.32,2.45 4.97,2.45l8.66 0c-0.05,1.27 -0.07,2.52 -0.05,3.75l-9.47 -0.12c15.21,8.23 27.11,10.71 36.07,10.54l51.23 -13.48 -15.67 2.41zm-50.77 8.76l0 0c-3.12,-0.11 -5.35,-8.57 -5,-18.9 0.36,-10.33 3.18,-18.61 6.3,-18.5 3.12,0.1 5.36,8.56 5,18.89 -0.35,10.33 -3.18,18.61 -6.3,18.51zm4.38 0.11l0 0c1.78,-4.26 3.06,-10.98 3.33,-18.57 0.45,-13.04 -2.28,-23.71 -6.1,-23.85l-0.97 0.03c0.84,-0.72 1.65,-1.09 2.37,-1.02 3.72,0.38 8.27,11.57 6.65,27.57 -0.17,1.62 -0.38,3.24 -0.63,4.81l-0.35 2.16 24.73 -5.27c0.69,3.76 1.73,6.52 2.95,7.55l-31.98 6.59zm44.09 -10.07l0 0c-1.95,0 -3.53,-6.76 -3.53,-15.1 0,-8.34 1.58,-15.09 3.53,-15.09 1.95,0 3.53,6.75 3.53,15.09 0,8.34 -1.58,15.1 -3.53,15.1z"/>
    <path class="fil0" d="M81.37 55.86c1.44,0 2.07,0.66 2.32,1.05 0.21,0.33 0.26,0.62 0.26,0.81l-14.98 0c0.65,0.6 1.3,1.2 1.94,1.79l11.85 0c-0.68,0.88 -1.51,1.94 -2.33,2.98l-6.19 0c0.68,0.61 1.36,1.21 2.04,1.79l2.72 0c-0.43,0.53 -0.81,1 -1.12,1.38 0.61,0.53 1.22,1.04 1.82,1.55 1.58,-1.95 5.26,-6.52 6.24,-8.04 0.56,-0.87 0.53,-2.16 -0.09,-3.3 -0.83,-1.52 -2.46,-2.4 -4.48,-2.4l-16.9 0c0.85,0.81 1.68,1.61 2.51,2.39l14.39 0z"/>
    <path class="fil0" d="M120.9 48.12c-4.04,0.71 -32.74,6.99 -32.74,6.99l7.37 -0.83c-1.86,1 -3.52,2.45 -3.52,4.44 0,1.66 2.42,1.82 6.99,1.77 4.58,-0.04 12.88,-0.84 15.34,-1.14 2.46,-0.3 6.69,-2.24 8.26,-5.51 1.57,-3.26 2.67,-6.48 -1.7,-5.72z"/>
    <path class="fil0" d="M35.12 98.89c2.84,-1.76 5.02,-4.53 6.06,-7.83l39.34 0.49c-1.51,-0.96 -3.05,-1.98 -4.6,-3.04l-61.99 -0.78c-2.06,0 -2.94,-1.23 -3.31,-2.41l3.8 0c1.65,0 3.87,-1.1 4.96,-2.45l3.79 -4.7c1.09,-1.35 0.64,-2.45 -1.01,-2.45l-11.56 0c0.19,-5.27 0.38,-11 0.38,-12.42 0,-1.19 0.91,-3.37 1.73,-5 1.86,0.89 7.32,3.12 9.53,-0.19 0.96,-1.44 -0.04,-3.44 -1.63,-5.13l4.58 2.11 -8.15 -5.72c1.07,-1.82 3.65,-5.37 7.72,-6.46 -0.73,-0.79 -1.46,-1.58 -2.19,-2.39 -4.28,1.71 -7.22,5.46 -8.57,8.15 -1.33,0.91 -4.86,3.75 -3.39,7.22 -0.55,0.98 -2.61,4.85 -2.61,7.41 0,1.43 -0.22,7.82 -0.4,12.96 -0.15,4.18 -0.24,6.77 -0.24,7.26 0,2.67 1.39,7.2 6.55,7.2l0.69 0.01c1.16,3.98 3.94,7.23 7.57,8.93l-16.5 1.09 94.78 1.53c-3.11,-1.34 -6.33,-2.9 -9.68,-4.69l-55.65 1.3z"/>
    <path class="fil0" d="M32.39 78.17l-3.79 4.7c-1.09,1.35 -0.64,2.45 1.01,2.45l41.76 0c-3.99,-2.88 -8.11,-6.07 -12.38,-9.6l-21.64 0c-1.65,0 -3.87,1.1 -4.96,2.45z"/>
    <path class="fil0" d="M27.09 54.91c-0.37,0.5 -0.74,1.37 -0.35,2.69 0.74,2.46 3.33,8.44 6.67,11.2l0.12 0.11 0.14 0.06c0.3,0.14 7.52,3.36 19.84,4.39l0.06 0.01 0.06 -0.01c0.14,0 1.03,-0.03 2.42,-0.12 -0.88,-0.75 -1.76,-1.51 -2.66,-2.29 -4.67,-0.41 -8.6,-1.15 -11.63,-1.89l9.48 0c-0.66,-0.59 -1.32,-1.19 -1.99,-1.79l-13.41 0c-0.51,-0.19 -0.86,-0.34 -1.04,-0.41 -0.78,-0.68 -1.52,-1.58 -2.2,-2.58l13.4 0c-0.64,-0.59 -1.28,-1.18 -1.92,-1.79l-12.59 0c-0.58,-1.02 -1.08,-2.05 -1.48,-2.98l10.95 0c-0.61,-0.59 -1.22,-1.19 -1.84,-1.79l-9.82 0c-0.11,-0.3 -0.2,-0.57 -0.27,-0.8 -0.08,-0.28 -0.09,-0.5 -0.02,-0.58 0.03,-0.05 0.41,-0.48 2.32,-0.48l5.91 0c-0.79,-0.79 -1.58,-1.58 -2.38,-2.39l-3.53 0c-1.36,0 -3.28,0.15 -4.24,1.44z"/>
   </g>
  </g>
 </g>
</svg>
